<?xml version="1.0" standalone="no"?>
<!DOCTYPE svg PUBLIC "-//W3C//DTD SVG 20010904//EN"
 "http://www.w3.org/TR/2001/REC-SVG-20010904/DTD/svg10.dtd">
<svg version="1.0" xmlns="http://www.w3.org/2000/svg"
 width="50.000000pt" height="50.000000pt" viewBox="0 0 50.000000 50.000000"
 preserveAspectRatio="xMidYMid meet">

<g transform="translate(0.000000,50.000000) scale(0.100000,-0.100000)"
fill="#000000" stroke="none">
<path d="M235 421 c-3 -5 0 -13 6 -16 5 -4 8 -13 5 -21 -3 -8 -1 -14 4 -14 6
0 10 6 10 14 0 8 3 21 6 30 7 17 -20 23 -31 7z"/>
<path d="M137 303 c-2 -5 -7 -24 -11 -45 -9 -47 -34 -58 -43 -18 -4 20 -12 30
-24 30 -21 0 -49 -26 -49 -45 0 -17 38 -45 62 -45 13 0 18 -8 18 -28 0 -40 17
-52 77 -52 46 0 53 -3 53 -20 0 -23 7 -24 104 -10 81 12 106 30 106 76 0 23 5
34 19 39 33 10 45 33 33 60 -22 48 -94 30 -105 -27 -2 -13 -5 -6 -6 19 -2 74
-1 73 -121 73 -60 0 -111 -3 -113 -7z m68 -73 c0 -24 -5 -36 -17 -38 -19 -4
-32 29 -23 59 11 34 40 19 40 -21z m125 -1 c0 -33 -3 -40 -17 -37 -32 6 -30
78 2 78 11 0 15 -11 15 -41z m35 -69 c-3 -5 -12 -10 -18 -10 -7 0 -6 4 3 10
19 12 23 12 15 0z m-82 -7 c-23 -2 -64 -2 -90 0 -26 2 -8 3 42 3 50 0 71 -1
48 -3z m60 -70 c-13 -2 -33 -2 -45 0 -13 2 -3 4 22 4 25 0 35 -2 23 -4z"/>
</g>
</svg>
