<?xml version="1.0" standalone="no"?>
<!DOCTYPE svg PUBLIC "-//W3C//DTD SVG 20010904//EN"
 "http://www.w3.org/TR/2001/REC-SVG-20010904/DTD/svg10.dtd">
<svg version="1.0" xmlns="http://www.w3.org/2000/svg"
 width="60.000000pt" height="60.000000pt" viewBox="0 0 60.000000 60.000000"
 preserveAspectRatio="xMidYMid meet">

<g transform="translate(0.000000,60.000000) scale(0.100000,-0.100000)"
fill="#000000" stroke="none">
<path d="M294 512 c-13 -8 -7 -72 7 -72 5 0 9 8 9 18 0 9 3 27 6 40 6 22 -2
28 -22 14z"/>
<path d="M162 358 c-6 -6 -12 -24 -12 -39 0 -37 -9 -59 -25 -59 -7 0 -16 -6
-18 -12 -3 -7 -6 5 -6 28 -1 50 -5 54 -43 43 -36 -10 -34 -8 -42 -36 -9 -28
24 -63 58 -63 20 0 24 -6 30 -39 8 -50 21 -60 94 -67 46 -5 61 -11 65 -24 4
-15 11 -17 48 -9 24 4 66 8 92 9 80 0 116 29 117 93 0 30 4 37 19 37 20 0 51
35 51 57 0 22 -39 53 -67 53 -31 0 -72 -41 -75 -74 -1 -12 -4 8 -7 44 l-6 65
-130 3 c-93 2 -134 -1 -143 -10z m76 -40 c15 -15 16 -70 1 -85 -21 -21 -39 -2
-39 41 0 55 13 69 38 44z m160 -38 c3 -46 -12 -67 -35 -48 -17 13 -17 85 0 91
24 10 32 0 35 -43z m46 -75 c-9 -22 -37 -26 -159 -23 l-110 4 121 2 c94 2 124
5 134 17 16 19 21 19 14 0z m66 -60 c0 -3 -15 -14 -32 -25 -24 -14 -49 -19
-88 -18 l-55 1 61 6 c33 3 71 14 85 23 27 19 29 20 29 13z"/>
</g>
</svg>
